<svg width="240" height="240" viewBox="0 0 240 240" fill="none" xmlns="http://www.w3.org/2000/svg">
  <!-- Background (blurred office/outdoor setting) -->
  <rect width="240" height="240" rx="8" fill="#e8f0f5"/>
  
  <!-- Background elements (blurred buildings/environment) -->
  <rect x="0" y="0" width="240" height="120" fill="url(#bgGradient)"/>
  <rect x="160" y="20" width="60" height="80" rx="5" fill="#b8c5d1" opacity="0.4"/>
  <rect x="180" y="50" width="40" height="60" rx="3" fill="#a0b0c0" opacity="0.3"/>
  
  <!-- Shirt (light blue button-up) -->
  <path d="M80 180 Q120 170 160 180 L165 240 L75 240 Z" fill="#87ceeb"/>
  
  <!-- Shirt collar and button details -->
  <path d="M110 180 L120 190 L130 180" stroke="#6ba6cd" stroke-width="2" fill="none"/>
  <rect x="118" y="200" width="4" height="4" rx="2" fill="#ffffff"/>
  <rect x="118" y="210" width="4" height="4" rx="2" fill="#ffffff"/>
  
  <!-- Neck -->
  <rect x="110" y="170" width="20" height="15" fill="#f4c2a1"/>
  
  <!-- Face -->
  <ellipse cx="120" cy="130" rx="28" ry="35" fill="#f4c2a1"/>
  
  <!-- Hair (dark brown/black) -->
  <path d="M92 110 Q120 85 148 110 Q145 95 120 90 Q95 95 92 110" fill="#4a3c28"/>
  <path d="M95 115 Q110 105 125 108 Q135 110 145 115" fill="#4a3c28"/>
  
  <!-- Glasses -->
  <rect x="100" y="120" width="18" height="12" rx="6" fill="none" stroke="#2c3e50" stroke-width="2"/>
  <rect x="122" y="120" width="18" height="12" rx="6" fill="none" stroke="#2c3e50" stroke-width="2"/>
  <line x1="118" y1="126" x2="122" y2="126" stroke="#2c3e50" stroke-width="2"/>
  
  <!-- Eyes -->
  <circle cx="109" cy="126" r="2" fill="#2c3e50"/>
  <circle cx="131" cy="126" r="2" fill="#2c3e50"/>
  
  <!-- Nose -->
  <path d="M118 135 Q120 140 122 135" stroke="#e8b896" stroke-width="1" fill="none"/>
  
  <!-- Mouth (slight smile) -->
  <path d="M115 145 Q120 150 125 145" stroke="#d4956d" stroke-width="2" fill="none"/>
  
  <!-- Watch on wrist -->
  <rect x="160" y="200" width="8" height="8" rx="1" fill="#2c3e50"/>
  <rect x="162" y="202" width="4" height="4" rx="1" fill="#ffffff"/>
  
  <!-- Background gradient definition -->
  <defs>
    <linearGradient id="bgGradient" x1="0%" y1="0%" x2="100%" y2="100%">
      <stop offset="0%" style="stop-color:#f0f8ff;stop-opacity:1" />
      <stop offset="50%" style="stop-color:#e6f3ff;stop-opacity:1" />
      <stop offset="100%" style="stop-color:#d9edff;stop-opacity:1" />
    </linearGradient>
  </defs>
</svg> 